<svg width="21" height="16" viewBox="0 0 21 16" fill="none" xmlns="http://www.w3.org/2000/svg">
<path fill-rule="evenodd" clip-rule="evenodd" d="M6.4967 14.3333H13.7411C16.4022 14.3333 18.4437 13.595 17.8638 10.6232L17.1886 6.59575C16.8312 5.11292 15.5999 4.54541 14.5196 4.54541H5.68646C4.59027 4.54541 3.43052 5.15563 3.01746 6.59575L2.34226 10.6232C1.84977 13.2594 3.83564 14.3333 6.4967 14.3333Z" stroke="white" stroke-opacity="0.5" stroke-width="1.5" stroke-linecap="round" stroke-linejoin="round"/>
<path d="M6.37754 4.39895C6.37754 2.80824 8.05617 1.51871 10.1269 1.51871V1.51871C11.124 1.51546 12.0817 1.81748 12.7883 2.35798C13.4949 2.89849 13.8921 3.63294 13.8921 4.39895V4.39895" stroke="white" stroke-opacity="0.5" stroke-width="1.5" stroke-linecap="round" stroke-linejoin="round"/>
<path d="M7.55317 7.40123H7.59289" stroke="white" stroke-opacity="0.5" stroke-width="1.5" stroke-linecap="round" stroke-linejoin="round"/>
<path d="M12.6132 7.40123H12.6529" stroke="white" stroke-opacity="0.5" stroke-width="1.5" stroke-linecap="round" stroke-linejoin="round"/>
</svg>
