<svg width="21" height="16" viewBox="0 0 21 16" fill="none" xmlns="http://www.w3.org/2000/svg">
<path d="M7.94684 13.8476V11.8031C7.94683 11.2831 8.49869 10.8605 9.18245 10.857H11.6871C12.3741 10.857 12.931 11.2806 12.931 11.8031V11.8031V13.8539C12.9309 14.2954 13.3942 14.6563 13.9746 14.6666H15.6443C17.3089 14.6666 18.6582 13.6404 18.6582 12.3745V12.3745V6.55854C18.6493 6.06054 18.3419 5.59289 17.8233 5.28868L12.1128 1.79019C11.1124 1.18104 9.69029 1.18104 8.68988 1.79019L3.00442 5.29503C2.48392 5.598 2.17596 6.06643 2.16955 6.56489V12.3745C2.16955 13.6404 3.51891 14.6666 5.18343 14.6666H6.85316C7.44796 14.6666 7.93015 14.2999 7.93015 13.8476V13.8476" stroke="white" stroke-opacity="0.5" stroke-width="1.5" stroke-linecap="round" stroke-linejoin="round"/>
</svg>
