<svg width="21" height="16" viewBox="0 0 21 16" fill="none" xmlns="http://www.w3.org/2000/svg">
<path fill-rule="evenodd" clip-rule="evenodd" d="M6.49676 14.3333H13.7412C16.4023 14.3333 18.4437 13.595 17.8639 10.6232L17.1887 6.59575C16.8312 5.11292 15.6 4.54541 14.5197 4.54541H5.68653C4.59033 4.54541 3.43058 5.15563 3.01752 6.59575L2.34233 10.6232C1.84983 13.2594 3.8357 14.3333 6.49676 14.3333Z" stroke="black" stroke-width="1.5" stroke-linecap="round" stroke-linejoin="round"/>
<path d="M6.37761 4.39895C6.37761 2.80824 8.05623 1.51871 10.1269 1.51871V1.51871C11.1241 1.51546 12.0818 1.81748 12.7884 2.35798C13.4949 2.89849 13.8921 3.63294 13.8921 4.39895V4.39895" stroke="black" stroke-width="1.5" stroke-linecap="round" stroke-linejoin="round"/>
<path d="M7.55324 7.40123H7.59295" stroke="black" stroke-width="1.5" stroke-linecap="round" stroke-linejoin="round"/>
<path d="M12.6132 7.40123H12.653" stroke="black" stroke-width="1.5" stroke-linecap="round" stroke-linejoin="round"/>
</svg>
