<svg width="21" height="16" viewBox="0 0 21 16" fill="none" xmlns="http://www.w3.org/2000/svg">
<path d="M7.94687 13.8477V11.8032C7.94686 11.2832 8.49873 10.8606 9.18249 10.8571H11.6871C12.3741 10.8571 12.9311 11.2807 12.9311 11.8032V11.8032V13.854C12.9309 14.2956 13.3943 14.6564 13.9747 14.6668H15.6444C17.3089 14.6668 18.6583 13.6405 18.6583 12.3746V12.3746V6.55863C18.6494 6.06063 18.3419 5.59297 17.8234 5.28876L12.1129 1.79027C11.1125 1.18111 9.69033 1.18111 8.68991 1.79027L3.00443 5.29511C2.48393 5.59809 2.17597 6.06652 2.16956 6.56498V12.3746C2.16956 13.6405 3.51892 14.6668 5.18345 14.6668H6.85319C7.44799 14.6668 7.93018 14.3001 7.93018 13.8477V13.8477" stroke="white" stroke-opacity="0.5" stroke-width="1.5" stroke-linecap="round" stroke-linejoin="round"/>
</svg>
