<svg width="21" height="16" viewBox="0 0 21 16" fill="none" xmlns="http://www.w3.org/2000/svg">
<path fill-rule="evenodd" clip-rule="evenodd" d="M6.49679 14.3334H13.7413C16.4023 14.3334 18.4438 13.595 17.8639 10.6232L17.1887 6.59578C16.8313 5.11294 15.6 4.54543 14.5197 4.54543H5.68655C4.59035 4.54543 3.4306 5.15565 3.01753 6.59578L2.34233 10.6232C1.84984 13.2594 3.83571 14.3334 6.49679 14.3334Z" stroke="white" stroke-width="1.5" stroke-linecap="round" stroke-linejoin="round"/>
<path d="M6.37763 4.39897C6.37763 2.80825 8.05626 1.51872 10.127 1.51872V1.51872C11.1241 1.51547 12.0818 1.81749 12.7884 2.35799C13.495 2.8985 13.8922 3.63296 13.8922 4.39897V4.39897" stroke="white" stroke-width="1.5" stroke-linecap="round" stroke-linejoin="round"/>
<path d="M7.55327 7.40132H7.59298" stroke="white" stroke-width="1.5" stroke-linecap="round" stroke-linejoin="round"/>
<path d="M12.6133 7.40132H12.653" stroke="white" stroke-width="1.5" stroke-linecap="round" stroke-linejoin="round"/>
</svg>
