<svg width="21" height="16" viewBox="0 0 21 16" fill="none" xmlns="http://www.w3.org/2000/svg">
<path fill-rule="evenodd" clip-rule="evenodd" d="M6.49659 14.3333H13.741C16.4021 14.3333 18.4436 13.595 17.8637 10.6232L17.1885 6.59573C16.8311 5.11289 15.5998 4.54539 14.5195 4.54539H5.68635C4.59015 4.54539 3.4304 5.15561 3.01734 6.59573L2.34214 10.6232C1.84964 13.2593 3.83552 14.3333 6.49659 14.3333Z" stroke="white" stroke-opacity="0.5" stroke-width="1.5" stroke-linecap="round" stroke-linejoin="round"/>
<path d="M6.37768 4.39893C6.37768 2.80821 8.05631 1.51868 10.127 1.51868V1.51868C11.1241 1.51543 12.0819 1.81745 12.7885 2.35796C13.495 2.89846 13.8922 3.63292 13.8922 4.39893V4.39893" stroke="white" stroke-opacity="0.5" stroke-width="1.5" stroke-linecap="round" stroke-linejoin="round"/>
<path d="M7.55293 7.40121H7.59265" stroke="white" stroke-opacity="0.5" stroke-width="1.5" stroke-linecap="round" stroke-linejoin="round"/>
<path d="M12.6129 7.40121H12.6527" stroke="white" stroke-opacity="0.5" stroke-width="1.5" stroke-linecap="round" stroke-linejoin="round"/>
</svg>
