<svg width="21" height="16" viewBox="0 0 21 16" fill="none" xmlns="http://www.w3.org/2000/svg">
<path fill-rule="evenodd" clip-rule="evenodd" d="M6.49684 14.3333H13.7413C16.4024 14.3333 18.4438 13.595 17.864 10.6232L17.1888 6.59573C16.8313 5.11289 15.6001 4.54539 14.5198 4.54539H5.6866C4.5904 4.54539 3.43065 5.15561 3.01759 6.59573L2.34239 10.6232C1.8499 13.2593 3.83577 14.3333 6.49684 14.3333Z" stroke="white" stroke-opacity="0.5" stroke-width="1.5" stroke-linecap="round" stroke-linejoin="round"/>
<path d="M6.37768 4.39893C6.37768 2.80821 8.05631 1.51868 10.127 1.51868V1.51868C11.1241 1.51543 12.0819 1.81745 12.7885 2.35796C13.495 2.89846 13.8922 3.63292 13.8922 4.39893V4.39893" stroke="white" stroke-opacity="0.5" stroke-width="1.5" stroke-linecap="round" stroke-linejoin="round"/>
<path d="M7.55344 7.40121H7.59316" stroke="white" stroke-opacity="0.5" stroke-width="1.5" stroke-linecap="round" stroke-linejoin="round"/>
<path d="M12.6134 7.40121H12.6532" stroke="white" stroke-opacity="0.5" stroke-width="1.5" stroke-linecap="round" stroke-linejoin="round"/>
</svg>
