<svg width="21" height="16" viewBox="0 0 21 16" fill="none" xmlns="http://www.w3.org/2000/svg">
<path d="M7.94686 13.8476V11.8031C7.94684 11.2831 8.49871 10.8606 9.18247 10.8571H11.6871C12.3741 10.8571 12.931 11.2806 12.931 11.8031V11.8031V13.854C12.9309 14.2955 13.3942 14.6563 13.9746 14.6667H15.6444C17.3089 14.6667 18.6583 13.6405 18.6583 12.3746V12.3746V6.55856C18.6494 6.06055 18.3419 5.5929 17.8234 5.28869L12.1129 1.7902C11.1124 1.18104 9.69031 1.18104 8.68989 1.7902L3.00442 5.29504C2.48393 5.59801 2.17596 6.06644 2.16955 6.56491V12.3746C2.16955 13.6405 3.51891 14.6667 5.18344 14.6667H6.85318C7.44798 14.6667 7.93016 14.3 7.93016 13.8476V13.8476" stroke="white" stroke-opacity="0.5" stroke-width="1.5" stroke-linecap="round" stroke-linejoin="round"/>
</svg>
