<svg width="21" height="16" viewBox="0 0 21 16" fill="none" xmlns="http://www.w3.org/2000/svg">
<path d="M7.94711 13.8476V11.8031C7.9471 11.2831 8.49896 10.8606 9.18272 10.8571H11.6873C12.3744 10.8571 12.9313 11.2806 12.9313 11.8031V11.8031V13.854C12.9311 14.2955 13.3945 14.6563 13.9749 14.6667H15.6446C17.3091 14.6667 18.6585 13.6405 18.6585 12.3746V12.3746V6.55856C18.6496 6.06055 18.3422 5.5929 17.8236 5.28869L12.1131 1.7902C11.1127 1.18104 9.69057 1.18104 8.69015 1.7902L3.00468 5.29504C2.48418 5.59801 2.17622 6.06644 2.1698 6.56491V12.3746C2.1698 13.6405 3.51917 14.6667 5.18369 14.6667H6.85343C7.44823 14.6667 7.93041 14.3 7.93041 13.8476V13.8476" stroke="white" stroke-opacity="0.5" stroke-width="1.5" stroke-linecap="round" stroke-linejoin="round"/>
</svg>
