<svg width="106" height="70" viewBox="0 0 106 70" fill="none" xmlns="http://www.w3.org/2000/svg">
<path d="M10.6949 36.5468C6.70215 38.554 1.90132 38.2195 0 37.8013V70H52.9993H105.999V15.4295C95.5413 -7.65322 84.371 2.04821 80.0931 9.78426L72.7254 22.5383C69.4774 28.6714 59.4637 38.8885 45.394 30.6925C31.3242 22.4965 23.5288 25.7442 21.3898 28.3926C19.4885 30.2743 14.6877 34.5396 10.6949 36.5468Z" fill="url(#paint0_linear_403_270)"/>
<path d="M1.13975 37.6842C3.00018 38.1011 7.69777 38.4345 11.6047 36.4337C15.5116 34.4329 20.2092 30.1812 22.0696 28.3055C24.1626 25.6655 31.7903 22.4281 45.5575 30.5981C59.3247 38.768 69.123 28.5834 72.3012 22.4698L79.5104 9.75632C83.6963 2.04488 94.6264 -7.62569 104.859 15.3836" stroke="#7D67FF" stroke-width="2" stroke-linecap="round"/>
<defs>
<linearGradient id="paint0_linear_403_270" x1="70.499" y1="70" x2="70.1258" y2="9.50006" gradientUnits="userSpaceOnUse">
<stop offset="0.0001"/>
<stop offset="1" stop-color="#9A89FF"/>
</linearGradient>
</defs>
</svg>
