<svg width="32" height="32" viewBox="0 0 32 32" fill="none" xmlns="http://www.w3.org/2000/svg">
<rect width="32" height="32" rx="5" fill="white"/>
<g filter="url(#filter0_i_503_61)">
<ellipse cx="16" cy="16" rx="14.8469" ry="14.8469" transform="rotate(90.5938 16 16)" fill="url(#paint0_linear_503_61)"/>
</g>
<circle cx="16.0188" cy="15.8428" r="10.0235" transform="rotate(90.5938 16.0188 15.8428)" fill="url(#paint1_linear_503_61)" stroke="#E2CD5E" stroke-width="7"/>
<path d="M10.5546 15.8623L8.9052 17.6763L7.2572 15.8623L8.9052 14.0484L10.5546 15.8623ZM14.5534 11.4577L17.3776 14.5678L19.0256 12.7539L14.5534 7.83146L10.0813 12.7539L11.7293 14.5678L14.5534 11.4577ZM20.2031 14.0484L18.5551 15.8623L20.2031 17.6763L21.8497 15.8623L20.2031 14.0484ZM14.5534 20.2669L11.7293 17.1585L10.0813 18.9708L14.5534 23.8932L19.0256 18.9708L17.3776 17.1585L14.5534 20.2669ZM14.5534 17.6763L16.2014 15.8623L14.5534 14.0484L12.9054 15.8623L14.5534 17.6763Z" fill="#BB9C3E"/>
<defs>
<filter id="filter0_i_503_61" x="1.15308" y="1.15306" width="29.6938" height="32.6939" filterUnits="userSpaceOnUse" color-interpolation-filters="sRGB">
<feFlood flood-opacity="0" result="BackgroundImageFix"/>
<feBlend mode="normal" in="SourceGraphic" in2="BackgroundImageFix" result="shape"/>
<feColorMatrix in="SourceAlpha" type="matrix" values="0 0 0 0 0 0 0 0 0 0 0 0 0 0 0 0 0 0 127 0" result="hardAlpha"/>
<feOffset dy="10"/>
<feGaussianBlur stdDeviation="1.5"/>
<feComposite in2="hardAlpha" operator="arithmetic" k2="-1" k3="1"/>
<feColorMatrix type="matrix" values="0 0 0 0 0.592708 0 0 0 0 0.491021 0 0 0 0 0.162995 0 0 0 1 0"/>
<feBlend mode="normal" in2="shape" result="effect1_innerShadow_503_61"/>
</filter>
<linearGradient id="paint0_linear_503_61" x1="31.9752" y1="15.8156" x2="-0.887447" y2="15.1132" gradientUnits="userSpaceOnUse">
<stop stop-color="#AD8B27"/>
<stop offset="0.479167" stop-color="#F7E582"/>
<stop offset="1" stop-color="#AD8B27"/>
</linearGradient>
<linearGradient id="paint1_linear_503_61" x1="22.9495" y1="0.229819" x2="13.578" y2="31.9307" gradientUnits="userSpaceOnUse">
<stop stop-color="#D5AF4A"/>
<stop offset="0.467814" stop-color="#F2E983"/>
<stop offset="0.741687" stop-color="#F2E983"/>
<stop offset="1" stop-color="#D5B14B"/>
</linearGradient>
</defs>
</svg>
