<svg width="21" height="16" viewBox="0 0 21 16" fill="none" xmlns="http://www.w3.org/2000/svg">
<path fill-rule="evenodd" clip-rule="evenodd" d="M6.49678 14.3333H13.7412C16.4023 14.3333 18.4438 13.595 17.8639 10.6232L17.1887 6.59573C16.8313 5.11289 15.6 4.54539 14.5197 4.54539H5.68654C4.59034 4.54539 3.43059 5.15561 3.01753 6.59573L2.34233 10.6232C1.84983 13.2593 3.83571 14.3333 6.49678 14.3333Z" stroke="white" stroke-opacity="0.5" stroke-width="1.5" stroke-linecap="round" stroke-linejoin="round"/>
<path d="M6.37762 4.39893C6.37762 2.80821 8.05625 1.51868 10.1269 1.51868V1.51868C11.1241 1.51543 12.0818 1.81745 12.7884 2.35796C13.495 2.89846 13.8922 3.63292 13.8922 4.39893V4.39893" stroke="white" stroke-opacity="0.5" stroke-width="1.5" stroke-linecap="round" stroke-linejoin="round"/>
<path d="M7.55325 7.40121H7.59297" stroke="white" stroke-opacity="0.5" stroke-width="1.5" stroke-linecap="round" stroke-linejoin="round"/>
<path d="M12.6133 7.40121H12.653" stroke="white" stroke-opacity="0.5" stroke-width="1.5" stroke-linecap="round" stroke-linejoin="round"/>
</svg>
