<svg width="21" height="16" viewBox="0 0 21 16" fill="none" xmlns="http://www.w3.org/2000/svg">
<path fill-rule="evenodd" clip-rule="evenodd" d="M6.49671 14.3333H13.7412C16.4022 14.3333 18.4437 13.595 17.8638 10.6232L17.1887 6.59573C16.8312 5.11289 15.6 4.54539 14.5196 4.54539H5.68648C4.59027 4.54539 3.43052 5.15561 3.01746 6.59573L2.34227 10.6232C1.84977 13.2593 3.83564 14.3333 6.49671 14.3333Z" stroke="white" stroke-opacity="0.5" stroke-width="1.5" stroke-linecap="round" stroke-linejoin="round"/>
<path d="M6.37755 4.39893C6.37755 2.80821 8.05619 1.51868 10.1269 1.51868V1.51868C11.124 1.51543 12.0818 1.81745 12.7883 2.35796C13.4949 2.89846 13.8921 3.63292 13.8921 4.39893V4.39893" stroke="white" stroke-opacity="0.5" stroke-width="1.5" stroke-linecap="round" stroke-linejoin="round"/>
<path d="M7.55319 7.40121H7.5929" stroke="white" stroke-opacity="0.5" stroke-width="1.5" stroke-linecap="round" stroke-linejoin="round"/>
<path d="M12.6132 7.40121H12.6529" stroke="white" stroke-opacity="0.5" stroke-width="1.5" stroke-linecap="round" stroke-linejoin="round"/>
</svg>
