<svg width="21" height="16" viewBox="0 0 21 16" fill="none" xmlns="http://www.w3.org/2000/svg">
<path d="M7.9471 13.8476V11.8031C7.94708 11.2831 8.49895 10.8605 9.1827 10.857H11.6873C12.3743 10.857 12.9313 11.2806 12.9313 11.8031V11.8031V13.8539C12.9311 14.2954 13.3945 14.6563 13.9749 14.6666H15.6446C17.3091 14.6666 18.6585 13.6404 18.6585 12.3745V12.3745V6.55854C18.6496 6.06054 18.3421 5.59289 17.8236 5.28868L12.1131 1.79019C11.1127 1.18104 9.69055 1.18104 8.69013 1.79019L3.00467 5.29503C2.48418 5.598 2.17621 6.06643 2.1698 6.56489V12.3745C2.1698 13.6404 3.51916 14.6666 5.18368 14.6666H6.85342C7.44822 14.6666 7.9304 14.2999 7.9304 13.8476V13.8476" stroke="white" stroke-opacity="0.5" stroke-width="1.5" stroke-linecap="round" stroke-linejoin="round"/>
</svg>
