<svg width="21" height="16" viewBox="0 0 21 16" fill="none" xmlns="http://www.w3.org/2000/svg">
<path fill-rule="evenodd" clip-rule="evenodd" d="M6.49657 14.3333H13.741C16.4021 14.3333 18.4436 13.595 17.8637 10.6232L17.1885 6.59575C16.831 5.11292 15.5998 4.54541 14.5195 4.54541H5.68634C4.59014 4.54541 3.43039 5.15563 3.01733 6.59575L2.34214 10.6232C1.84964 13.2594 3.83551 14.3333 6.49657 14.3333Z" stroke="white" stroke-opacity="0.5" stroke-width="1.5" stroke-linecap="round" stroke-linejoin="round"/>
<path d="M6.37767 4.39895C6.37767 2.80824 8.0563 1.51871 10.127 1.51871V1.51871C11.1241 1.51546 12.0819 1.81748 12.7884 2.35798C13.495 2.89849 13.8922 3.63294 13.8922 4.39895V4.39895" stroke="white" stroke-opacity="0.5" stroke-width="1.5" stroke-linecap="round" stroke-linejoin="round"/>
<path d="M7.55292 7.40123H7.59264" stroke="white" stroke-opacity="0.5" stroke-width="1.5" stroke-linecap="round" stroke-linejoin="round"/>
<path d="M12.6129 7.40123H12.6526" stroke="white" stroke-opacity="0.5" stroke-width="1.5" stroke-linecap="round" stroke-linejoin="round"/>
</svg>
