<svg width="21" height="16" viewBox="0 0 21 16" fill="none" xmlns="http://www.w3.org/2000/svg">
<path fill-rule="evenodd" clip-rule="evenodd" d="M6.49683 14.3333H13.7413C16.4023 14.3333 18.4438 13.595 17.8639 10.6232L17.1887 6.59575C16.8313 5.11292 15.6 4.54541 14.5197 4.54541H5.68659C4.59039 4.54541 3.43064 5.15563 3.01758 6.59575L2.34239 10.6232C1.84989 13.2594 3.83576 14.3333 6.49683 14.3333Z" stroke="white" stroke-opacity="0.5" stroke-width="1.5" stroke-linecap="round" stroke-linejoin="round"/>
<path d="M6.37767 4.39895C6.37767 2.80824 8.0563 1.51871 10.127 1.51871V1.51871C11.1241 1.51546 12.0819 1.81748 12.7884 2.35798C13.495 2.89849 13.8922 3.63294 13.8922 4.39895V4.39895" stroke="white" stroke-opacity="0.5" stroke-width="1.5" stroke-linecap="round" stroke-linejoin="round"/>
<path d="M7.55343 7.40123H7.59314" stroke="white" stroke-opacity="0.5" stroke-width="1.5" stroke-linecap="round" stroke-linejoin="round"/>
<path d="M12.6134 7.40123H12.6531" stroke="white" stroke-opacity="0.5" stroke-width="1.5" stroke-linecap="round" stroke-linejoin="round"/>
</svg>
